<svg xmlns="http://www.w3.org/2000/svg" width="1800" height="860" viewBox="0 0 1800 860">
<style>
text{font-family:Arial,'Microsoft YaHei',sans-serif;fill:#0b2345}.title{font-size:42px;font-weight:700}.head{font-size:27px;font-weight:700}.cell{font-size:25px}.status{font-size:22px;font-weight:700}
</style>
<rect width="1800" height="860" fill="#fff"/>
<text x="900.0" y="62" text-anchor="middle" class="title">Experiment 13: Out-of-Scope Compromise Results</text>
<rect x="25" y="98" width="1750" height="64" rx="12" fill="#e7eef8"/>
<text x="45" y="140" class="head">Compromised asset</text>
<text x="900" y="140" class="head">Alone enough</text>
<text x="1135" y="140" class="head">Effect observed</text>
<text x="1395" y="140" class="head">Classification</text>
<rect x="25" y="182" width="1750" height="78" fill="#f4f7fb"/>
<text x="45" y="237" class="cell">eUICC long-term secret x</text>
<text x="900" y="237" class="cell">NO</text>
<text x="1135" y="237" class="cell">YES</text>
<text x="1395" y="237" class="status" fill="#a02d28">EXPECTED OUT-OF-SCOPE</text>
<rect x="25" y="274" width="1750" height="78" fill="#ffffff"/>
<text x="45" y="329" class="cell">Ticket witnesses eta,d</text>
<text x="900" y="329" class="cell">NO</text>
<text x="1135" y="329" class="cell">YES</text>
<text x="1395" y="329" class="status" fill="#a02d28">EXPECTED OUT-OF-SCOPE</text>
<rect x="25" y="366" width="1750" height="78" fill="#f4f7fb"/>
<text x="45" y="421" class="cell">EUM issuing private key</text>
<text x="900" y="421" class="cell">YES</text>
<text x="1135" y="421" class="cell">YES</text>
<text x="1395" y="421" class="status" fill="#a02d28">EXPECTED OUT-OF-SCOPE</text>
<rect x="25" y="458" width="1750" height="78" fill="#ffffff"/>
<text x="45" y="513" class="cell">MNO ticket issuing key</text>
<text x="900" y="513" class="cell">YES</text>
<text x="1135" y="513" class="cell">YES</text>
<text x="1395" y="513" class="status" fill="#a02d28">EXPECTED OUT-OF-SCOPE</text>
<rect x="25" y="550" width="1750" height="78" fill="#f4f7fb"/>
<text x="45" y="605" class="cell">SM-DP+ signing/binding keys</text>
<text x="900" y="605" class="cell">YES</text>
<text x="1135" y="605" class="cell">YES</text>
<text x="1395" y="605" class="status" fill="#a02d28">EXPECTED OUT-OF-SCOPE</text>
<rect x="25" y="642" width="1750" height="78" fill="#ffffff"/>
<text x="45" y="697" class="cell">EUM tracing database</text>
<text x="900" y="697" class="cell">YES</text>
<text x="1135" y="697" class="cell">YES</text>
<text x="1395" y="697" class="status" fill="#a02d28">EXPECTED OUT-OF-SCOPE</text>
</svg>
